%
M48
M72
T01C0.0118
T02C0.0400
%
T01
X4962Y2399
X3399Y4212
X3024Y4212
X2649Y4212
X2649Y4587
X3024Y4587
X3399Y4587
X7337Y7649
X7712Y7993
X7462Y8587
X7462Y8962
X7087Y8962
X7087Y8587
X6712Y8587
X6712Y8962
X6337Y8962
X6337Y8587
X6337Y9524
X6712Y9524
X7087Y9524
X7462Y9524
X7462Y10087
X7087Y10087
X7087Y10462
X6712Y10462
X6712Y10087
X6337Y10087
X6337Y10462
X7774Y11149
X8087Y11462
X8868Y11712
X9493Y11368
X9805Y11712
X10149Y11399
X10930Y12055
X11680Y10462
X11587Y9837
X11618Y9337
X11618Y8712
X11618Y8274
X11680Y7649
X10587Y7774
X10618Y6743
X9087Y7774
X8774Y7399
X12180Y6462
X13274Y6337
X13399Y7087
X14649Y6649
X15805Y7649
X16618Y7524
X17118Y7555
X16180Y8305
X14868Y8274
X14868Y8712
X14962Y9149
X13524Y9212
X13524Y8712
X12774Y8305
X12618Y9087
X13493Y10368
X14493Y11837
X13805Y12087
X15399Y11837
X16524Y12180
X16962Y11805
X16712Y10712
X17212Y10118
X16680Y9524
X15555Y5524
X15430Y4618
X16212Y3587
X17712Y4587
X14024Y5337
X3399Y7712
X3399Y8087
X3024Y8087
X2649Y8087
X2649Y7712
X3024Y7712
X3024Y11212
X3024Y11587
X2649Y11587
X2649Y11212
X3399Y11212
X3399Y11587
T02
X19024Y12024
X19024Y11024
X19024Y10024
X19024Y9024
X19024Y8024
X19024Y7024
X19087Y4087
X19087Y3087
X19087Y2087
M30
