%
M48
M72
T01C0.0276
T02C0.0320
T03C0.0354
T04C0.0440
%
T01
X14732Y2030
X15732Y2030
X15232Y2780
X18039Y3726
X18039Y4726
X18039Y5726
X24039Y5726
X24039Y4726
X24039Y3726
T02
X2764Y1872
X3764Y1872
X5913Y1872
X6913Y1872
X8748Y1872
X9748Y1872
X7618Y5599
X5496Y6439
X4496Y6439
X7618Y7499
X5496Y9352
X4496Y9352
X6571Y10297
X3764Y10770
X2764Y10770
X9484Y10849
X11138Y10140
X15547Y11321
X23972Y11242
T03
X20642Y9431
X19642Y9431
X18642Y9431
X11846Y3974
X11846Y2974
X11846Y1974
X17303Y1557
X18303Y1557
X19303Y1557
T04
X13264Y2675
X13264Y10675
M30
