%
M48
M72
T01C0.0236
T02C0.0320
T03C0.0354
T04C0.0360
T05C0.0374
T06C0.0400
T07C0.0520
T08C0.0787
T09C0.0906
T10C0.1575
%
T01
X4489Y8991
X5739Y8991
X5689Y8341
X6339Y7591
X5789Y12641
X6939Y14841
X6939Y16141
X6139Y15541
X7439Y19441
X6839Y20841
X3039Y17091
X2989Y17791
X6789Y30641
X6789Y31241
X6789Y31841
X6789Y33441
X4689Y35341
X4689Y36341
X4639Y38341
X3589Y43091
X4239Y48191
X7439Y41841
X8189Y42591
X8189Y43691
X8989Y43691
X8989Y42541
X8289Y45641
X8289Y46541
X9089Y46091
X9039Y47191
X9339Y47741
X9289Y49941
X8389Y49791
X7839Y48741
X7739Y47891
X10539Y44241
X10539Y42041
X10539Y41441
X10539Y40841
X10489Y40241
X12439Y40241
X12439Y40841
X12439Y41441
X12439Y42041
X13739Y43091
X13739Y45991
X14789Y49341
X14789Y50191
X17839Y51091
X18839Y51041
X19989Y45391
X21739Y47691
X22339Y47741
X22539Y45991
X22889Y43091
X24139Y40391
X21389Y40341
X21439Y39341
X21439Y38341
X18689Y30841
X17839Y29241
X17239Y29691
X16689Y29191
X19139Y24841
X18989Y23841
X19039Y22991
X19089Y22241
X20189Y19441
X21439Y20291
X22389Y19441
X23239Y18991
X23889Y17441
X23239Y16891
X23439Y24541
X24139Y25291
X23389Y28391
X23389Y30391
X21439Y30391
X21439Y29341
X21439Y28341
X17439Y18941
X16039Y16041
X14739Y17391
X13939Y19441
X14839Y20291
X11339Y17791
X12039Y10191
X12789Y10191
X13639Y10191
X12789Y8541
X12039Y8541
X10539Y7691
X9889Y9641
X15189Y8641
X15689Y7091
X16739Y9641
X18589Y5791
X18589Y5191
X17289Y4091
X20039Y6941
X21089Y4041
X2139Y35841
X11489Y51241
T02
X3389Y14191
X2889Y13441
X3889Y13441
T03
X7389Y2741
X8389Y2741
X9389Y2741
X21439Y7391
X22439Y7391
X23439Y7391
T04
X18095Y39291
X17308Y39291
X16520Y39291
X15733Y39291
X14946Y39291
X14158Y39291
X13371Y39291
X12583Y39291
T05
X12508Y6014
X12508Y5226
X13492Y5226
X13492Y6014
T06
X8689Y5291
X7689Y5291
X8100Y22220
X9100Y22220
X10100Y22220
X11100Y22220
X12100Y22220
X13100Y22220
X14100Y22220
X15100Y22220
X16100Y22220
X17100Y22220
X23089Y14141
X23089Y13141
X23089Y12141
X23089Y11141
X23089Y10141
X23089Y9141
X7539Y50791
X6539Y50791
T07
X17189Y25991
X18289Y26791
T08
X9052Y44791
X9052Y48689
T09
X10630Y4159
X15370Y4159
T10
X3551Y3359
X22449Y3359
X22055Y50603
X3158Y50603
M30
